<?xml version="1.0" encoding="UTF-8" standalone="no"?>
<svg
   width="24"
   height="24"
   viewBox="0 0 24 24"
   fill="none"
   version="1.1"
   id="svg9167"
   xml:space="preserve"
   xmlns="http://www.w3.org/2000/svg"
   xmlns:svg="http://www.w3.org/2000/svg"><defs
   id="defs9165"><linearGradient
     id="paint0_linear_14_150"
     x1="12"
     y1="0"
     x2="12"
     y2="12"
     gradientUnits="userSpaceOnUse"><stop
       stop-color="#00A4DC"
       id="stop9160"
       offset="0"
       style="stop-color:#2991c9;stop-opacity:1;" /><stop
       stop-color="#00A4DC"
       id="stop10414"
       offset="0.31842107"
       style="stop-color:#006699;stop-opacity:1;" /><stop
       offset="0.5"
       stop-color="#006699"
       id="stop9162"
       style="stop-color:#36464e;stop-opacity:1;" /></linearGradient><style
     id="style16516">.cls-1{fill:#002a44;}.cls-2{fill:none;stroke:#2991c9;stroke-miterlimit:10;stroke-width:5px;}.cls-3{fill:#2991c9;}.cls-4{fill:#fff;}</style><radialGradient
     fx="0"
     fy="0"
     cx="0"
     cy="0"
     r="1"
     gradientUnits="userSpaceOnUse"
     gradientTransform="matrix(0,16.5,-16.5,0,9,0.75)"
     spreadMethod="pad"
     id="radialGradient1006"><stop
       style="stop-opacity:1;stop-color:#8fc8ff"
       offset="0"
       id="stop1002" /><stop
       style="stop-opacity:1;stop-color:#0056a8"
       offset="1"
       id="stop1004" /></radialGradient></defs><rect
   x="1.4307"
   y="2.1239"
   width="21.138"
   height="19.752"
   rx="2.7062"
   fill="url(#a)"
   opacity=".9"
   stroke="#808080"
   stroke-opacity=".2"
   vector-effect="non-scaling-stroke"
   style="-inkscape-stroke:hairline;fill:url(#a);stroke-width:0.92882"
   id="rect2" /><g
   id="g28316"
   transform="translate(0,0.1949287)"><g
     id="g5"><path
       id="path16524"
       style="fill:#002b44;fill-opacity:1;stroke:none"
       class="cls-2"
       d="m 8.4550781,12.251953 v 0.785156 c 0.00611,1.893197 1.4024893,3.458167 3.2226559,3.726563 v 1.654297 C 10.089012,18.499289 8.875,18.929036 8.875,19.449219 h 2.802734 v 0.002 h 1.085938 v -0.002 h 2.802734 c 0,-0.520183 -1.214011,-0.949931 -2.802734,-1.03125 v -1.654297 c 1.820135,-0.268315 3.218496,-1.83323 3.224609,-3.726563 v -0.785156 h -0.539062 v 0.765625 c -0.0057,1.779955 -1.448562,3.220863 -3.228516,3.226563 -1.779302,-0.0067 -3.2189093,-1.447258 -3.2246092,-3.226563 v -0.765625 z" /><path
       class="cls-1"
       d="m 9.1778862,12.251953 v 0.725828 a 3.0539733,3.0539733 0 0 0 3.0437938,3.043793 v 0 a 3.0539733,3.0539733 0 0 0 3.043793,-3.043793 v -0.725828 z"
       id="path16520"
       style="stroke-width:0.101799" /><path
       class="cls-1"
       d="M 15.282385,11.728705 V 7.201699 A 3.0539733,3.0539733 0 0 0 12.238592,4.1589236 v 0 A 3.0539733,3.0539733 0 0 0 9.1947982,7.201699 v 4.527006 z"
       id="path16522"
       style="fill:#002b44;fill-opacity:1;stroke-width:0.101799" /></g><g
     id="g4"><circle
       class="cls-3"
       cx="10.103865"
       cy="7.4236212"
       r="0.4316282"
       id="circle16526"
       style="stroke-width:0.101799" /><circle
       class="cls-3"
       cx="11.527016"
       cy="7.4236212"
       r="0.4316282"
       id="circle16528"
       style="stroke-width:0.101799" /><circle
       class="cls-3"
       cx="12.950168"
       cy="7.4236212"
       r="0.4316282"
       id="circle16530"
       style="stroke-width:0.101799" /><circle
       class="cls-3"
       cx="11.527016"
       cy="6.0890346"
       r="0.4316282"
       id="circle16532"
       style="stroke-width:0.101799" /><circle
       class="cls-3"
       cx="12.950168"
       cy="6.0890346"
       r="0.4316282"
       id="circle16534"
       style="stroke-width:0.101799" /><circle
       class="cls-3"
       cx="14.373319"
       cy="7.4236212"
       r="0.4316282"
       id="circle16536"
       style="stroke-width:0.101799" /><circle
       class="cls-3"
       cx="10.103865"
       cy="8.813179"
       r="0.4316282"
       id="circle16538"
       style="stroke-width:0.101799" /><circle
       class="cls-3"
       cx="11.527016"
       cy="8.813179"
       r="0.4316282"
       id="circle16540"
       style="stroke-width:0.101799" /><circle
       class="cls-3"
       cx="12.950168"
       cy="8.813179"
       r="0.4316282"
       id="circle16542"
       style="stroke-width:0.101799" /><circle
       class="cls-3"
       cx="14.373319"
       cy="8.813179"
       r="0.4316282"
       id="circle16544"
       style="stroke-width:0.101799" /><circle
       class="cls-3"
       cx="10.103865"
       cy="10.254655"
       r="0.4316282"
       id="circle16546"
       style="stroke-width:0.101799" /><circle
       class="cls-3"
       cx="11.527016"
       cy="10.254655"
       r="0.4316282"
       id="circle16548"
       style="stroke-width:0.101799" /><circle
       class="cls-3"
       cx="12.950168"
       cy="10.254655"
       r="0.4316282"
       id="circle16550"
       style="stroke-width:0.101799" /><circle
       class="cls-3"
       cx="14.373319"
       cy="10.254655"
       r="0.4316282"
       id="circle16552"
       style="stroke-width:0.101799" /></g><g
     id="g3"><path
       id="path6"
       class="cls-4"
       d="m 12.894178,12.855622 a 0.7889431,0.7889431 0 0 1 0.416358,-0.235156 c 0.05294,0 0.101799,-0.0071 0.157789,-0.0092 a 0.47947381,0.47947381 0 0 1 0.176112,0.04581 0.72175569,0.72175569 0 0 1 0.224976,0.203599 0.94774971,0.94774971 0 0 1 0.177131,0.407196 1.0505668,1.0505668 0 0 1 0.0051,0.149645 0.58229091,0.58229091 0 0 1 -0.07431,-0.132339 0.68409002,0.68409002 0 0 0 -0.129284,-0.155753 0.40719644,0.40719644 0 0 0 -0.272822,-0.112997 0.34000903,0.34000903 0 0 0 -0.116051,0.01425 0.57720095,0.57720095 0 0 0 -0.276894,0.166951 c -0.02341,0.02952 -0.04988,0.05599 -0.07228,0.08551 -0.0224,0.02952 -0.04785,0.07228 -0.06515,0.111979 a 0.86325645,0.86325645 0 0 0 -0.1018,0.367495 c 0,0.0509 0,0.101799 0.0092,0.149644 0.01425,0.03461 0.0071,0.08042 0.04377,0.101799 a 0.12012295,0.12012295 0 0 0 0.07228,-0.01832 0.95385766,0.95385766 0 0 0 0.154735,-0.145573 c 0.05803,-0.04886 0.101799,-0.111979 0.155753,-0.164915 0.03054,-0.02341 0.04988,-0.05599 0.08144,-0.0794 a 1.149312,1.149312 0 0 1 0.186292,-0.150663 0.30539733,0.30539733 0 0 1 0.172041,-0.04581 0.27383961,0.27383961 0 0 1 0.184256,0.108925 0.84493261,0.84493261 0 0 1 0.130303,0.291145 c 0.01222,0.05294 0.0071,0.107907 0.01425,0.163897 a 1.8547798,1.8547798 0 0 1 -0.101799,0.542589 0.78588913,0.78588913 0 0 1 -0.08449,0.174077 c -0.01222,0.01527 -0.01934,0.03461 -0.03767,0.03868 a 0.88361627,0.88361627 0 0 1 0.01832,-0.101799 0.46725791,0.46725791 0 0 0 0,-0.119105 1.1197902,1.1197902 0 0 0 0,-0.184256 c -0.01425,-0.06006 -0.01731,-0.125213 -0.03767,-0.185275 a 0.49677966,0.49677966 0 0 0 -0.04785,-0.126231 0.20359822,0.20359822 0 0 0 -0.04886,-0.06821 0.16084259,0.16084259 0 0 0 -0.08653,-0.03665 0.32982912,0.32982912 0 0 0 -0.07024,0.02138 0.65762225,0.65762225 0 0 0 -0.140483,0.130303 0.81439288,0.81439288 0 0 1 -0.119104,0.101799 0.31761322,0.31761322 0 0 1 -0.219887,0.06312 0.71259377,0.71259377 0 0 1 -0.305397,-0.101799 0.62810051,0.62810051 0 0 1 -0.119105,-0.09366 0.5945068,0.5945068 0 0 1 -0.159824,-0.333901 0.26773166,0.26773166 0 0 1 -0.0071,-0.117069 1.0179911,1.0179911 0 0 1 0.114015,-0.442826 1.1197902,1.1197902 0 0 1 0.121141,-0.181202 0.17509447,0.17509447 0 0 1 0.0794,-0.09773 z"
       style="stroke-width:0.101799" /><path
       id="path3742"
       class="cls-4"
       d="m 11.659355,14.939449 a 0.78079917,0.78079917 0 0 1 -0.416359,0.234138 c -0.05293,0 -0.101799,0.0081 -0.157788,0.01018 a 0.50085162,0.50085162 0 0 1 -0.176113,-0.04581 0.72480966,0.72480966 0 0 1 -0.224976,-0.203599 0.95283967,0.95283967 0 0 1 -0.17713,-0.407196 1.0597287,1.0597287 0 0 1 0,-0.150663 0.572111,0.572111 0 0 1 0.07431,0.133357 0.65456828,0.65456828 0 0 0 0.128267,0.155753 0.40719644,0.40719644 0 0 0 0.27384,0.112997 0.3664768,0.3664768 0 0 0 0.116051,-0.01425 0.56396707,0.56396707 0 0 0 0.267731,-0.164915 c 0.02443,-0.0285 0.0509,-0.05497 0.0733,-0.08449 0.0224,-0.02952 0.04785,-0.07228 0.06515,-0.110961 a 0.87140038,0.87140038 0 0 0 0.101799,-0.368513 c 0,-0.0509 0,-0.101799 -0.0092,-0.150662 -0.01425,-0.03359 -0.0071,-0.0794 -0.04377,-0.1018 a 0.11808697,0.11808697 0 0 0 -0.07228,0.01832 0.95385766,0.95385766 0 0 0 -0.154734,0.145573 c -0.05904,0.04886 -0.1018,0.111979 -0.155753,0.164915 -0.03156,0.02443 -0.0509,0.05599 -0.08246,0.0794 a 1.1004484,1.1004484 0 0 1 -0.185275,0.150663 0.31659523,0.31659523 0 0 1 -0.17204,0.04581 0.27180362,0.27180362 0 0 1 -0.179167,-0.106889 0.84798659,0.84798659 0 0 1 -0.130303,-0.290127 c -0.01221,-0.05395 -0.0071,-0.109943 -0.01425,-0.164915 a 1.8547798,1.8547798 0 0 1 0.101799,-0.542589 0.78588913,0.78588913 0 0 1 0.08449,-0.174077 c 0.01222,-0.01425 0.01832,-0.03359 0.03665,-0.03868 a 0.85002257,0.85002257 0 0 1 -0.01832,0.101799 0.46725791,0.46725791 0 0 0 0,0.119105 1.1197902,1.1197902 0 0 0 0,0.184256 c 0.01425,0.06006 0.01731,0.125213 0.03665,0.185275 a 0.49677966,0.49677966 0 0 0 0.04784,0.12623 0.20359822,0.20359822 0 0 0 0.04886,0.06821 0.1598246,0.1598246 0 0 0 0.08653,0.03563 0.30539733,0.30539733 0 0 0 0.07126,-0.02138 0.6525323,0.6525323 0 0 0 0.139465,-0.130303 0.88463427,0.88463427 0 0 1 0.119105,-0.101799 0.31761322,0.31761322 0 0 1 0.219886,-0.06312 0.71259377,0.71259377 0 0 1 0.305397,0.101799 0.5945068,0.5945068 0 0 1 0.119105,0.09467 0.58738086,0.58738086 0 0 1 0.161861,0.334919 0.26365969,0.26365969 0 0 1 0.0071,0.116051 1.0006853,1.0006853 0 0 1 -0.114015,0.442826 1.1900316,1.1900316 0 0 1 -0.120123,0.181202 0.22395804,0.22395804 0 0 1 -0.08246,0.09366 z"
       style="stroke-width:0.101799" /><path
       id="path10"
       class="cls-4"
       d="m 11.989184,12.995086 a 0.39905251,0.39905251 0 0 1 0.328811,0.02443 0.25755175,0.25755175 0 0 1 0.08449,0.101799 0.17713045,0.17713045 0 0 1 -0.0092,0.156771 0.35833287,0.35833287 0 0 1 -0.298271,0.189346 0.32473916,0.32473916 0 0 1 -0.166951,-0.0224 0.23719193,0.23719193 0 0 1 -0.143536,-0.147608 0.18629237,0.18629237 0 0 1 0.02443,-0.149645 0.33593706,0.33593706 0 0 1 0.180185,-0.152699 z"
       style="stroke-width:0.101799" /><path
       id="path12"
       class="cls-4"
       d="m 11.998346,13.636421 a 0.24635385,0.24635385 0 0 1 0.215814,-0.118087 0.32881113,0.32881113 0 0 1 0.128267,0.03359 0.1944363,0.1944363 0 0 1 0.118087,0.133357 1.0790706,1.0790706 0 0 0 0.02239,0.21276 0.81439288,0.81439288 0 0 0 0.244318,0.365459 c 0.05294,0.06312 0.125213,0.101799 0.179167,0.170005 a 1.6287858,1.6287858 0 0 1 -0.244318,-0.02647 0.81439288,0.81439288 0 0 1 -0.280966,-0.101799 0.62810051,0.62810051 0 0 1 -0.138446,-0.09467 0.79199708,0.79199708 0 0 1 -0.172041,-0.191383 0.61079466,0.61079466 0 0 1 -0.101799,-0.278929 0.35833287,0.35833287 0 0 1 0.02952,-0.103835 z"
       style="stroke-width:0.101799" /></g><g
     id="g2"><rect
       class="cls-3"
       x="16.827696"
       y="5.1982927"
       width="0.57007504"
       height="6.5609522"
       rx="0.27689359"
       id="rect16562"
       style="fill:#cccccc;fill-opacity:1;stroke-width:0.101799" /><rect
       class="cls-3"
       x="17.73167"
       y="6.3486223"
       width="0.57007504"
       height="4.3559842"
       rx="0.27689359"
       id="rect16564"
       style="fill:#cccccc;fill-opacity:1;stroke-width:0.101799" /><rect
       class="cls-3"
       x="18.635649"
       y="7.6567411"
       width="0.57007504"
       height="1.7468727"
       rx="0.27689359"
       id="rect16566"
       style="fill:#cccccc;fill-opacity:1;stroke-width:0.101799" /><rect
       class="cls-3"
       x="19.538605"
       y="7.2811022"
       width="0.57007504"
       height="2.4441967"
       rx="0.27689359"
       id="rect16568"
       style="fill:#cccccc;fill-opacity:1;stroke-width:0.101799" /><rect
       class="cls-3"
       x="20.442581"
       y="8.0995674"
       width="0.57007504"
       height="0.76451135"
       rx="0.27689359"
       id="rect16570"
       style="fill:#cccccc;fill-opacity:1;stroke-width:0.101799" /><rect
       class="cls-3"
       x="15.923719"
       y="7.2566705"
       width="0.57007504"
       height="2.4441967"
       rx="0.27689359"
       id="rect16572"
       style="fill:#cccccc;fill-opacity:1;stroke-width:0.101799" /></g><g
     id="g1"><path
       class="cls-3"
       d="m 3.2232624,8.9414458 h 0.686126 c 0.3135413,0 0.3145593,-0.4886357 0,-0.4886357 h -0.686126 c -0.3145592,0 -0.3145592,0.4886357 0,0.4886357 z"
       id="path16574"
       style="fill:#cccccc;fill-opacity:1;stroke-width:0.101799" /><path
       class="cls-3"
       d="M 4.5680287,9.609248 4.1201126,8.573951 C 3.9959177,8.2858595 3.5744694,8.5342494 3.6976463,8.8203049 L 4.1455624,9.8566198 C 4.2697573,10.143693 4.6912056,9.8953035 4.5680287,9.609248 Z"
       id="path16576"
       style="fill:#cccccc;fill-opacity:1;stroke-width:0.101799" /><path
       class="cls-3"
       d="M 5.1157079,7.7280004 4.1455624,9.609248 C 4.0020256,9.8891955 4.4234739,10.136567 4.5680287,9.8566198 L 5.5371562,7.9743543 C 5.6817109,7.6954247 5.2602626,7.4480529 5.1157079,7.7280004 Z"
       id="path16578"
       style="fill:#cccccc;fill-opacity:1;stroke-width:0.101799" /><path
       class="cls-3"
       d="M 6.2935236,11.106713 5.564642,7.7860259 C 5.4964366,7.4806286 5.0251067,7.6088955 5.0933121,7.9163288 l 0.7309176,3.3196692 c 0.068205,0.305397 0.5385173,0.17713 0.4713299,-0.129285 z"
       id="path16580"
       style="fill:#cccccc;fill-opacity:1;stroke-width:0.101799" /><path
       class="cls-3"
       d="m 6.8971923,6.634678 -1.0749986,4.472035 c -0.073295,0.305397 0.3980345,0.4357 0.4713299,0.129285 L 7.3685222,6.7649808 C 7.4418175,6.4595835 6.9704877,6.3292806 6.8971923,6.634678 Z"
       id="path16582"
       style="fill:#cccccc;fill-opacity:1;stroke-width:0.101799" /><path
       class="cls-3"
       d="M 7.7797906,8.6319765 7.3725942,6.634678 C 7.3084607,6.3292806 6.8371308,6.4575475 6.9012643,6.7649808 L 7.3084607,8.7622794 C 7.3725942,9.0676767 7.842906,8.9394098 7.7797906,8.6319765 Z"
       id="path16584"
       style="fill:#cccccc;fill-opacity:1;stroke-width:0.101799" /><path
       class="cls-3"
       d="M 8.4007652,8.4528101 H 7.5446346 c -0.3145592,0 -0.3155772,0.4886357 0,0.4886357 h 0.8561306 c 0.3145592,0 0.3155772,-0.4886357 0,-0.4886357 z"
       id="path16586"
       style="fill:#cccccc;fill-opacity:1;stroke-width:0.101799" /></g></g>
  
   <defs
   id="defs2">
  <linearGradient
   id="a"
   x1="123.3"
   x2="8.2605"
   y1="120.17"
   y2="13.466"
   gradientTransform="matrix(.18333 0 0 .18333 -.167 -.167)"
   gradientUnits="userSpaceOnUse">
   <stop
   style="stop-color:#0056a8;stop-opacity:1;"
   offset="0"
   id="stop1" />
   <stop
   style="stop-color:#8fc8ff;stop-opacity:1;"
   offset="1"
   id="stop2" />
  </linearGradient>
 </defs>
 
  </svg>
