<svg width="24" height="24" fill="none" version="1.1" xmlns="http://www.w3.org/2000/svg">
 <rect x="1.4307" y="2.1239" width="21.138" height="19.752" rx="2.7062" fill="url(#a)" opacity=".9" stroke="#808080" stroke-opacity=".2" vector-effect="non-scaling-stroke" style="-inkscape-stroke:hairline;fill:url(#a);stroke-width:.92882"/>
 <g transform="matrix(0.79622,0,0,0.79622,2.4273127,2.8014814)" fill="currentColor" style="fill:#8fc8ff">
  <path d="M 17.158203 5.0605469 C 17.004804 5.0605469 16.880859 5.1844916 16.880859 5.3378906 L 16.880859 11.345703 C 16.880859 11.499102 17.004804 11.621094 17.158203 11.621094 L 17.173828 11.621094 C 17.327227 11.621094 17.451172 11.499102 17.451172 11.345703 L 17.451172 5.3378906 C 17.451172 5.1844916 17.327227 5.0605469 17.173828 5.0605469 L 17.158203 5.0605469 z M 7.1503906 5.8652344 C 7.1429092 5.8653891 7.1344531 5.8663954 7.1269531 5.8671875 C 7.0246369 5.8599092 6.9216959 5.9115537 6.890625 6.0410156 L 6.0625 9.4882812 L 5.5585938 7.1914062 C 5.5326467 7.0752256 5.4481523 7.0222482 5.3574219 7.0175781 C 5.2664322 6.9951204 5.1660404 7.0230731 5.109375 7.1328125 L 4.3691406 8.5703125 L 4.1152344 7.9804688 C 4.0661834 7.8666865 3.9707798 7.8365198 3.8808594 7.859375 L 3.2167969 7.859375 C 2.9022377 7.859375 2.9022377 8.3476562 3.2167969 8.3476562 L 3.7441406 8.3476562 L 4.140625 9.2617188 C 4.1871981 9.3693712 4.2755485 9.4014611 4.3613281 9.3847656 C 4.4383065 9.388621 4.5152733 9.3531788 4.5625 9.2617188 L 5.2304688 7.9667969 L 5.8105469 10.607422 C 5.8110613 10.611229 5.8118044 10.615419 5.8125 10.619141 L 5.8183594 10.642578 C 5.8465342 10.768734 5.9437941 10.818289 6.0429688 10.814453 C 6.1484695 10.825669 6.2550426 10.776635 6.2871094 10.642578 L 7.109375 7.2207031 L 7.3027344 8.1679688 C 7.3233052 8.2659249 7.3858438 8.3188144 7.4589844 8.3359375 C 7.4642291 8.3371653 7.4692652 8.3389853 7.4746094 8.3398438 C 7.4775449 8.3405688 7.4813642 8.3411723 7.484375 8.3417969 C 7.5016259 8.3453757 7.5193389 8.3476562 7.5390625 8.3476562 L 8.3945312 8.3476562 C 8.7090904 8.3476562 8.7101084 7.859375 8.3945312 7.859375 L 7.7363281 7.859375 L 7.3671875 6.0410156 C 7.3411333 5.9169479 7.2476489 5.8632223 7.1503906 5.8652344 z M 12 5.9550781 C 10.325812 5.9550781 8.9785156 7.3043269 8.9785156 8.9785156 L 8.9785156 10.1875 C 8.9785156 11.861689 10.325812 13.208984 12 13.208984 C 13.674188 13.208984 15.021484 11.861689 15.021484 10.1875 L 15.021484 8.9785156 C 15.021484 7.3043269 13.674188 5.9550781 12 5.9550781 z M 18.060547 6.2109375 C 17.907148 6.2109375 17.785156 6.3348822 17.785156 6.4882812 L 17.785156 10.291016 C 17.785156 10.444415 17.907148 10.566406 18.060547 10.566406 L 18.078125 10.566406 C 18.231524 10.566406 18.353516 10.444415 18.353516 10.291016 L 18.353516 6.4882812 C 18.353516 6.3348822 18.231524 6.2109375 18.078125 6.2109375 L 18.060547 6.2109375 z M 16.253906 7.1191406 C 16.100507 7.1191406 15.976562 7.2430853 15.976562 7.3964844 L 15.976562 9.2871094 C 15.976562 9.4405084 16.100507 9.5625 16.253906 9.5625 L 16.269531 9.5625 C 16.42293 9.5625 16.546875 9.4405084 16.546875 9.2871094 L 16.546875 7.3964844 C 16.546875 7.2430853 16.42293 7.1191406 16.269531 7.1191406 L 16.253906 7.1191406 z M 19.869141 7.1425781 C 19.715742 7.1425781 19.591797 7.2665228 19.591797 7.4199219 L 19.591797 9.3105469 C 19.591797 9.4639459 19.715742 9.5878906 19.869141 9.5878906 L 19.884766 9.5878906 C 20.038165 9.5878906 20.162109 9.4639459 20.162109 9.3105469 L 20.162109 7.4199219 C 20.162109 7.2665228 20.038165 7.1425781 19.884766 7.1425781 L 19.869141 7.1425781 z M 18.964844 7.5195312 C 18.811445 7.5195313 18.6875 7.643476 18.6875 7.796875 L 18.6875 8.9882812 C 18.6875 9.1416803 18.811445 9.265625 18.964844 9.265625 L 18.982422 9.265625 C 19.135821 9.265625 19.257812 9.1416803 19.257812 8.9882812 L 19.257812 7.796875 C 19.257812 7.643476 19.135821 7.5195312 18.982422 7.5195312 L 18.964844 7.5195312 z M 20.744141 7.9628906 C 20.604176 7.9770199 20.496094 8.0944696 20.496094 8.2382812 L 20.496094 8.4492188 C 20.496094 8.6026178 20.618085 8.7265625 20.771484 8.7265625 L 20.789062 8.7265625 C 20.942462 8.7265625 21.064453 8.6026178 21.064453 8.4492188 L 21.064453 8.2382812 C 21.064453 8.0848822 20.942462 7.9628906 20.789062 7.9628906 L 20.771484 7.9628906 C 20.761897 7.9628906 20.753472 7.9619487 20.744141 7.9628906 z M 8.0722656 9.8847656 A 0.6044 0.6044 0 0 0 7.4667969 10.488281 L 7.4667969 11.244141 C 7.4667969 13.16556 9.1738008 14.738974 11.396484 14.984375 L 11.396484 16.835938 L 8.9785156 16.835938 A 0.6044 0.6044 0 0 0 8.3730469 17.439453 A 0.6044 0.6044 0 0 0 8.9785156 18.044922 L 15.021484 18.044922 A 0.6044 0.6044 0 0 0 15.626953 17.439453 A 0.6044 0.6044 0 0 0 15.021484 16.835938 L 12.603516 16.835938 L 12.603516 14.984375 C 14.826199 14.738974 16.533203 13.16556 16.533203 11.244141 L 16.533203 10.488281 A 0.6044 0.6044 0 0 0 15.927734 9.8847656 A 0.6044 0.6044 0 0 0 15.324219 10.488281 L 15.324219 11.042969 C 15.324219 12.57754 13.841606 13.8125 12 13.8125 C 10.158393 13.8125 8.6757813 12.57754 8.6757812 11.042969 L 8.6757812 10.488281 A 0.6044 0.6044 0 0 0 8.0722656 9.8847656 z "/>
 </g>
 <defs>
  <linearGradient id="a" x1=".05" x2="1" y2="1" gradientTransform="matrix(24.424 0 0 22.822 -1.4364 -.44861)" gradientUnits="userSpaceOnUse">
   <stop stop-color="#0056a8" offset=".2327"/>
   <stop stop-color="#0082fd" offset=".23452"/>
   <stop stop-color="#0056a8" offset="1"/>
  </linearGradient>
 </defs>
</svg>
