<svg xmlns="http://www.w3.org/2000/svg" viewBox="0 0 177.07 154.05"><defs><style>.cls-1{fill:#002a44;}.cls-2{fill:none;stroke:#2991c9;stroke-miterlimit:10;stroke-width:5px;}.cls-3{fill:#2991c9;}.cls-4{fill:#fff;}</style></defs><g id="Layer_4" data-name="Layer 4"><path class="cls-1" d="M71.66,102.08v7.13a30,30,0,0,0,29.9,29.9h0a30,30,0,0,0,29.9-29.9v-7.13Z" transform="translate(-10.68 -22.57)"/><path class="cls-1" d="M131.46,96.93V52.46a30,30,0,0,0-29.9-29.89h0a30,30,0,0,0-29.9,29.89V96.93Z" transform="translate(-10.68 -22.57)"/><path class="cls-2" d="M63.91,102v7.71a37.13,37.13,0,0,0,37,37h0a37.13,37.13,0,0,0,37-37V102" transform="translate(-10.68 -22.57)"/><circle class="cls-3" cx="69.91" cy="32.07" r="4.24"/><circle class="cls-3" cx="83.89" cy="32.07" r="4.24"/><circle class="cls-3" cx="97.87" cy="32.07" r="4.24"/><circle class="cls-3" cx="83.89" cy="18.96" r="4.24"/><circle class="cls-3" cx="97.87" cy="18.96" r="4.24"/><circle class="cls-3" cx="111.85" cy="32.07" r="4.24"/><circle class="cls-3" cx="69.91" cy="45.72" r="4.24"/><circle class="cls-3" cx="83.89" cy="45.72" r="4.24"/><circle class="cls-3" cx="97.87" cy="45.72" r="4.24"/><circle class="cls-3" cx="111.85" cy="45.72" r="4.24"/><circle class="cls-3" cx="69.91" cy="59.88" r="4.24"/><circle class="cls-3" cx="83.89" cy="59.88" r="4.24"/><circle class="cls-3" cx="97.87" cy="59.88" r="4.24"/><circle class="cls-3" cx="111.85" cy="59.88" r="4.24"/><rect class="cls-3" x="84.93" y="126.28" width="10.66" height="27.77"/><path class="cls-3" d="M133.81,176.61H68.07c0-5.68,14.72-10.28,32.87-10.28S133.81,170.93,133.81,176.61Z" transform="translate(-10.68 -22.57)"/><path id="path6" class="cls-4" d="M108,108a7.75,7.75,0,0,1,4.09-2.31c.52,0,1-.07,1.55-.09a4.71,4.71,0,0,1,1.73.45,7.09,7.09,0,0,1,2.21,2,9.31,9.31,0,0,1,1.74,4,10.32,10.32,0,0,1,.05,1.47,5.72,5.72,0,0,1-.73-1.3,6.72,6.72,0,0,0-1.27-1.53,4,4,0,0,0-2.68-1.11,3.34,3.34,0,0,0-1.14.14,5.67,5.67,0,0,0-2.72,1.64c-.23.29-.49.55-.71.84s-.47.71-.64,1.1a8.48,8.48,0,0,0-1,3.61c0,.5,0,1,.09,1.47.14.34.07.79.43,1a1.18,1.18,0,0,0,.71-.18,9.37,9.37,0,0,0,1.52-1.43c.57-.48,1-1.1,1.53-1.62.3-.23.49-.55.8-.78a11.29,11.29,0,0,1,1.83-1.48,3,3,0,0,1,1.69-.45,2.69,2.69,0,0,1,1.81,1.07,8.3,8.3,0,0,1,1.28,2.86c.12.52.07,1.06.14,1.61a18.22,18.22,0,0,1-1,5.33,7.72,7.72,0,0,1-.83,1.71c-.12.15-.19.34-.37.38a8.68,8.68,0,0,1,.18-1,4.59,4.59,0,0,0,0-1.17,11,11,0,0,0,0-1.81c-.14-.59-.17-1.23-.37-1.82a4.88,4.88,0,0,0-.47-1.24,2,2,0,0,0-.48-.67,1.58,1.58,0,0,0-.85-.36,3.24,3.24,0,0,0-.69.21,6.46,6.46,0,0,0-1.38,1.28,8,8,0,0,1-1.17,1,3.12,3.12,0,0,1-2.16.62,7,7,0,0,1-3-1,6.17,6.17,0,0,1-1.17-.92,5.84,5.84,0,0,1-1.57-3.28,2.63,2.63,0,0,1-.07-1.15,10,10,0,0,1,1.12-4.35,11,11,0,0,1,1.19-1.78A1.72,1.72,0,0,1,108,108Z" transform="translate(-10.68 -22.57)"/><path id="path3742" class="cls-4" d="M95.87,128.47a7.67,7.67,0,0,1-4.09,2.3c-.52,0-1,.08-1.55.1a4.92,4.92,0,0,1-1.73-.45,7.12,7.12,0,0,1-2.21-2,9.36,9.36,0,0,1-1.74-4,10.41,10.41,0,0,1,0-1.48,5.62,5.62,0,0,1,.73,1.31,6.43,6.43,0,0,0,1.26,1.53,4,4,0,0,0,2.69,1.11,3.6,3.6,0,0,0,1.14-.14A5.54,5.54,0,0,0,93,125.13c.24-.28.5-.54.72-.83s.47-.71.64-1.09a8.56,8.56,0,0,0,1-3.62c0-.5,0-1-.09-1.48-.14-.33-.07-.78-.43-1a1.16,1.16,0,0,0-.71.18,9.37,9.37,0,0,0-1.52,1.43c-.58.48-1,1.1-1.53,1.62-.31.24-.5.55-.81.78a10.81,10.81,0,0,1-1.82,1.48,3.11,3.11,0,0,1-1.69.45A2.67,2.67,0,0,1,85,122a8.33,8.33,0,0,1-1.28-2.85c-.12-.53-.07-1.08-.14-1.62a18.22,18.22,0,0,1,1-5.33,7.72,7.72,0,0,1,.83-1.71c.12-.14.18-.33.36-.38a8.35,8.35,0,0,1-.18,1,4.59,4.59,0,0,0,0,1.17,11,11,0,0,0,0,1.81c.14.59.17,1.23.36,1.82a4.88,4.88,0,0,0,.47,1.24,2,2,0,0,0,.48.67,1.57,1.57,0,0,0,.85.35,3,3,0,0,0,.7-.21,6.41,6.41,0,0,0,1.37-1.28,8.69,8.69,0,0,1,1.17-1,3.12,3.12,0,0,1,2.16-.62,7,7,0,0,1,3,1,5.84,5.84,0,0,1,1.17.93,5.77,5.77,0,0,1,1.59,3.29,2.59,2.59,0,0,1,.07,1.14,9.83,9.83,0,0,1-1.12,4.35,11.69,11.69,0,0,1-1.18,1.78A2.2,2.2,0,0,1,95.87,128.47Z" transform="translate(-10.68 -22.57)"/><path id="path10" class="cls-4" d="M99.11,109.37a3.92,3.92,0,0,1,3.23.24,2.53,2.53,0,0,1,.83,1,1.74,1.74,0,0,1-.09,1.54,3.52,3.52,0,0,1-2.93,1.86,3.19,3.19,0,0,1-1.64-.22,2.33,2.33,0,0,1-1.41-1.45,1.83,1.83,0,0,1,.24-1.47A3.3,3.3,0,0,1,99.11,109.37Z" transform="translate(-10.68 -22.57)"/><path id="path12" class="cls-4" d="M99.2,115.67a2.42,2.42,0,0,1,2.12-1.16,3.23,3.23,0,0,1,1.26.33,1.91,1.91,0,0,1,1.16,1.31,10.6,10.6,0,0,0,.22,2.09,8,8,0,0,0,2.4,3.59c.52.62,1.23,1,1.76,1.67a16,16,0,0,1-2.4-.26,8,8,0,0,1-2.76-1,6.17,6.17,0,0,1-1.36-.93,7.78,7.78,0,0,1-1.69-1.88,6,6,0,0,1-1-2.74A3.52,3.52,0,0,1,99.2,115.67Z" transform="translate(-10.68 -22.57)"/><rect class="cls-3" x="135.96" y="10.21" width="5.6" height="64.45" rx="2.72"/><rect class="cls-3" x="144.84" y="21.51" width="5.6" height="42.79" rx="2.72"/><rect class="cls-3" x="153.72" y="34.36" width="5.6" height="17.16" rx="2.72"/><rect class="cls-3" x="162.59" y="30.67" width="5.6" height="24.01" rx="2.72"/><rect class="cls-3" x="171.47" y="38.71" width="5.6" height="7.51" rx="2.72"/><rect class="cls-3" x="127.08" y="30.43" width="5.6" height="24.01" rx="2.72"/><path class="cls-3" d="M13,69.55h6.74c3.08,0,3.09-4.8,0-4.8H13c-3.09,0-3.09,4.8,0,4.8Z" transform="translate(-10.68 -22.57)"/><path class="cls-3" d="M26.21,76.11l-4.4-10.17c-1.22-2.83-5.36-.39-4.15,2.42l4.4,10.18c1.22,2.82,5.36.38,4.15-2.43Z" transform="translate(-10.68 -22.57)"/><path class="cls-3" d="M31.59,57.63,22.06,76.11c-1.41,2.75,2.73,5.18,4.15,2.43l9.52-18.49c1.42-2.74-2.72-5.17-4.14-2.42Z" transform="translate(-10.68 -22.57)"/><path class="cls-3" d="M43.16,90.82,36,58.2c-.67-3-5.3-1.74-4.63,1.28l7.18,32.61c.67,3,5.29,1.74,4.63-1.27Z" transform="translate(-10.68 -22.57)"/><path class="cls-3" d="M49.09,46.89,38.53,90.82c-.72,3,3.91,4.28,4.63,1.27L53.72,48.17c.72-3-3.91-4.28-4.63-1.28Z" transform="translate(-10.68 -22.57)"/><path class="cls-3" d="M57.76,66.51l-4-19.62c-.63-3-5.26-1.74-4.63,1.28l4,19.62c.63,3,5.25,1.74,4.63-1.28Z" transform="translate(-10.68 -22.57)"/><path class="cls-3" d="M63.86,64.75H55.45c-3.09,0-3.1,4.8,0,4.8h8.41c3.09,0,3.1-4.8,0-4.8Z" transform="translate(-10.68 -22.57)"/></g></svg>