<?xml version="1.0" encoding="UTF-8" standalone="no"?>
<!-- Created with Inkscape (http://www.inkscape.org/) -->

<svg
   width="40"
   height="40"
   viewBox="0 0 10.583333 10.583334"
   version="1.1"
   id="svg5"
   inkscape:version="1.1.2 (0a00cf5339, 2022-02-04, custom)"
   sodipodi:docname="logo-big.svg"
   xmlns:inkscape="http://www.inkscape.org/namespaces/inkscape"
   xmlns:sodipodi="http://sodipodi.sourceforge.net/DTD/sodipodi-0.dtd"
   xmlns="http://www.w3.org/2000/svg"
   xmlns:svg="http://www.w3.org/2000/svg">
  <sodipodi:namedview
     id="namedview7"
     pagecolor="#ffffff"
     bordercolor="#666666"
     borderopacity="1.0"
     inkscape:pageshadow="2"
     inkscape:pageopacity="0.0"
     inkscape:pagecheckerboard="0"
     inkscape:document-units="mm"
     showgrid="false"
     units="px"
     width="40px"
     inkscape:zoom="16.918206"
     inkscape:cx="34.193933"
     inkscape:cy="18.05747"
     inkscape:window-width="2560"
     inkscape:window-height="1003"
     inkscape:window-x="0"
     inkscape:window-y="0"
     inkscape:window-maximized="1"
     inkscape:current-layer="layer1" />
  <defs
     id="defs2" />
  <g
     inkscape:label="Camada 1"
     inkscape:groupmode="layer"
     id="layer1">
    <g
       id="g1244"
       transform="translate(0.00459723,-0.34143621)"
       style="fill:#ffffff">
      <path
         id="path531"
         style="fill:#ffffff;stroke-width:0.0194464"
         class="cls-2"
         d="M 8.4194345,2.1148792 C 8.309748,2.1146863 8.1938098,2.1242692 8.0703252,2.1448672 6.0945708,2.4744841 6.1799293,4.771957 6.1799293,4.771957 c 0,0 -0.0022,1.0173116 0.9488758,1.5316675 0.7903024,0.4550459 1.2445285,-0.037272 1.3223151,-0.1148608 0.077783,-0.077586 1.6835418,-2.0878547 1.425294,1.7308355 0,0 0.5655058,-0.6152237 0.6008978,-2.0805106 C 10.5127,4.3738023 9.5714385,4.284789 9.5714385,4.2847887 c 0,0 -0.4164347,-0.1044276 -1.2431006,0.7887496 -0.8266674,0.8931737 -0.8843727,0.8532524 -0.8843727,0.8532524 0,0 -0.2334225,0.1644882 -0.2608416,-0.2495254 -0.027417,-0.4140145 -0.1170518,-1.6688788 1.1452143,-2.3481421 1.2622659,-0.679263 1.8751191,0.9845223 1.8751191,0.9845223 0,0 -0.138724,-2.1958707 -1.7840225,-2.1987663 z M 4.8791153,3.0643208 A 0.67090099,0.89472914 77.92 0 0 4.6273265,3.0903468 0.67090099,0.89472914 77.92 0 0 3.8928956,3.9339804 0.67090099,0.89472914 77.92 0 0 4.9079719,4.402477 0.67090099,0.89472914 77.92 0 0 5.6424027,3.5594092 0.67090099,0.89472914 77.92 0 0 4.8791153,3.0643192 Z M 0.69715911,3.3449662 c 0,0 -0.56493997,0.6159833 -0.60033224,2.0810763 -0.03538791,1.4650919 0.90587363,1.5554318 0.90587363,1.5554318 0,0 0.4158687,0.1044279 1.242535,-0.7887493 0.8266671,-0.8931741 0.8849382,-0.8532528 0.8849382,-0.8532525 0,0 0.2334216,-0.1644882 0.2608419,0.2495254 C 3.4184326,6.0030124 3.5076963,7.2578768 2.2452355,7.9371398 0.98277433,8.6164031 0.37011667,6.9526177 0.37011667,6.9526177 c 0,0 0.15735941,2.4981999 2.13369733,2.1687779 1.976339,-0.3294216 1.8898298,-2.6270899 1.8898298,-2.6270899 0,0 0.00223,-1.0163388 -0.9494413,-1.5316677 C 2.6538998,4.5075912 2.1996737,4.999337 2.1218871,5.0769333 2.0441041,5.1545189 0.43910535,7.1648245 0.69715911,3.3449662 Z M 5.1161927,4.5699609 A 0.68431905,0.68431905 0 0 0 4.4536206,5.4639522 c 0,0 0.4002133,1.5844569 2.5416515,1.6352121 0,0 -1.2369949,-0.8857786 -1.2080201,-1.8971856 A 0.68431905,0.68431905 0 0 0 5.1161927,4.5699609 Z" />
    </g>
  </g>
</svg>
