<svg xmlns="http://www.w3.org/2000/svg" width="48" height="48" version="1">
    <defs>
        <style id="current-color-scheme" type="text/css">
            .ColorScheme-Text { color:#dfdfdf; } .ColorScheme-Highlight { color:#4285f4; } .ColorScheme-NeutralText { color:#ff9800; } .ColorScheme-PositiveText { color:#4caf50; } .ColorScheme-NegativeText { color:#f44336; }
        </style>
    </defs>
<g transform="matrix(2.5687401,0,0,2.5687401,-6.7970373,-7.1793429)">
    <path style="fill:currentColor" class="ColorScheme-Text" d="m 17.158203,5.0605469 c -0.153399,0 -0.277344,0.1239447 -0.277344,0.2773437 v 6.0078124 c 0,0.153399 0.123945,0.275391 0.277344,0.275391 h 0.01563 c 0.153399,0 0.277344,-0.121992 0.277344,-0.275391 V 5.3378906 c 0,-0.153399 -0.123945,-0.2773437 -0.277344,-0.2773437 z M 7.1503906,5.8652344 c -0.00748,1.547e-4 -0.015937,0.00116 -0.023437,0.00195 C 7.0246369,5.8599092 6.9216959,5.9115537 6.890625,6.0410156 L 6.0625,9.4882812 5.5585938,7.1914062 C 5.5326467,7.0752256 5.4481523,7.0222482 5.3574219,7.0175781 5.2664322,6.9951204 5.1660404,7.0230731 5.109375,7.1328125 L 4.3691406,8.5703125 4.1152344,7.9804688 C 4.0661834,7.8666865 3.9707798,7.8365198 3.8808594,7.859375 H 3.2167969 c -0.3145592,0 -0.3145592,0.4882812 0,0.4882812 H 3.7441406 L 4.140625,9.2617188 C 4.1871981,9.3693712 4.2755485,9.4014611 4.3613281,9.3847656 4.4383065,9.388621 4.5152733,9.3531788 4.5625,9.2617188 L 5.2304688,7.9667969 5.8105469,10.607422 c 5.144e-4,0.0038 0.00126,0.008 0.00195,0.01172 l 0.00586,0.02344 c 0.028175,0.126156 0.1254347,0.175711 0.2246094,0.171875 0.1055007,0.01122 0.2120738,-0.03782 0.2441406,-0.171875 L 7.109375,7.2207031 7.3027344,8.1679688 c 0.020571,0.097956 0.083109,0.1508456 0.15625,0.1679687 0.00524,0.00123 0.010281,0.00305 0.015625,0.00391 0.00294,7.25e-4 0.00675,0.00133 0.00977,0.00195 0.017251,0.00358 0.034964,0.00586 0.054687,0.00586 h 0.8554687 c 0.3145592,0 0.3155772,-0.4882812 0,-0.4882812 H 7.7363281 L 7.3671875,6.0410156 C 7.3411333,5.9169479 7.2476489,5.8632223 7.1503906,5.8652344 Z M 12,5.9550781 c -1.674188,0 -3.0214844,1.3492488 -3.0214844,3.0234375 V 10.1875 c 0,1.674189 1.3472964,3.021484 3.0214844,3.021484 1.674188,0 3.021484,-1.347295 3.021484,-3.021484 V 8.9785156 C 15.021484,7.3043269 13.674188,5.9550781 12,5.9550781 Z m 6.060547,0.2558594 c -0.153399,0 -0.275391,0.1239447 -0.275391,0.2773437 v 3.8027348 c 0,0.153399 0.121992,0.27539 0.275391,0.27539 h 0.01758 c 0.153399,0 0.275391,-0.121991 0.275391,-0.27539 V 6.4882812 c 0,-0.153399 -0.121992,-0.2773437 -0.275391,-0.2773437 z m -1.806641,0.9082031 c -0.153399,0 -0.277344,0.1239447 -0.277344,0.2773438 v 1.890625 c 0,0.153399 0.123945,0.2753906 0.277344,0.2753906 h 0.01563 c 0.153399,0 0.277344,-0.1219916 0.277344,-0.2753906 v -1.890625 c 0,-0.1533991 -0.123945,-0.2773438 -0.277344,-0.2773438 z m 3.615235,0.023437 c -0.153399,0 -0.277344,0.1239447 -0.277344,0.2773438 v 1.890625 c 0,0.153399 0.123945,0.2773437 0.277344,0.2773437 h 0.01563 c 0.153399,0 0.277343,-0.1239447 0.277343,-0.2773437 v -1.890625 c 0,-0.1533991 -0.123944,-0.2773438 -0.277343,-0.2773438 z M 18.964844,7.5195312 C 18.811445,7.5195313 18.6875,7.643476 18.6875,7.796875 v 1.1914062 c 0,0.1533991 0.123945,0.2773438 0.277344,0.2773438 h 0.01758 c 0.153399,0 0.27539,-0.1239447 0.27539,-0.2773438 V 7.796875 c 0,-0.153399 -0.121991,-0.2773438 -0.27539,-0.2773438 z m 1.779297,0.4433594 c -0.139965,0.014129 -0.248047,0.131579 -0.248047,0.2753906 v 0.2109376 c 0,0.153399 0.121991,0.2773437 0.27539,0.2773437 h 0.01758 c 0.1534,0 0.275391,-0.1239447 0.275391,-0.2773437 V 8.2382812 c 0,-0.153399 -0.121991,-0.2753906 -0.275391,-0.2753906 h -0.01758 c -0.0096,0 -0.01801,-9.419e-4 -0.02734,0 z" />
</g>
<path style="fill:currentColor" class="ColorScheme-Text" d="m 13.938515,18.212051 c -0.857633,-0.0015 -1.554038,0.692641 -1.555292,1.550274 v 1.941608 c 0,4.935626 4.384849,8.977317 10.094345,9.607689 v 4.756184 h -6.211133 c -0.857632,-0.0015 -1.554037,0.69264 -1.555291,1.550273 -0.0015,0.859593 0.695698,1.556813 1.555291,1.555293 h 15.522816 c 0.859593,0.0015 1.556813,-0.6957 1.555292,-1.555293 -0.0013,-0.857633 -0.697659,-1.551791 -1.555292,-1.550273 h -6.211132 v -4.756184 c 5.709495,-0.630372 10.094345,-4.672063 10.094345,-9.607689 v -1.941608 c -0.0013,-0.857633 -0.69766,-1.551792 -1.555293,-1.550274 -0.855673,0.0013 -1.549022,0.694601 -1.550273,1.550274 v 1.424849 c 0,3.941914 -3.808447,7.114205 -8.539054,7.114205 -4.73061,0 -8.539054,-3.172291 -8.539055,-7.114205 v -1.424849 c -0.0013,-0.855673 -0.6946,-1.549023 -1.550274,-1.550274 z" />
</svg>
