<svg xmlns="http://www.w3.org/2000/svg" width="48" height="48" version="1">
    <defs>
        <style id="current-color-scheme" type="text/css">
            .ColorScheme-Text { color:#dfdfdf; } .ColorScheme-Highlight { color:#4285f4; } .ColorScheme-NeutralText { color:#ff9800; } .ColorScheme-PositiveText { color:#4caf50; } .ColorScheme-NegativeText { color:#f44336; }
        </style>
    </defs>
<g transform="matrix(1.0651823,0,0,1.0651823,-1.5940336,-2.570819)">
    <path style="opacity:.35;fill:currentColor" class="ColorScheme-Text"
d="m 24.053662,10.034732 c -4.037436,0 -7.286547,3.25382 -7.286547,7.291257 v 2.915561 c 0,4.037437 3.249111,7.286545 7.286547,7.286545 4.037436,0 7.286545,-3.249108 7.286545,-7.286545 v -2.915561 c 0,-4.037437 -3.249109,-7.291257 -7.286545,-7.291257 z" />
</g>
<path style="opacity:.35;fill:currentColor" class="ColorScheme-Text" d="m 13.938515,18.212051 c -0.857633,-0.0015 -1.554038,0.692641 -1.555292,1.550274 v 1.941608 c 0,4.935626 4.384849,8.977317 10.094345,9.607689 v 4.756184 h -6.211133 c -0.857632,-0.0015 -1.554037,0.69264 -1.555291,1.550273 -0.0015,0.859593 0.695698,1.556813 1.555291,1.555293 h 15.522816 c 0.859593,0.0015 1.556813,-0.6957 1.555292,-1.555293 -0.0013,-0.857633 -0.697659,-1.551791 -1.555292,-1.550273 h -6.211132 v -4.756184 c 5.709495,-0.630372 10.094345,-4.672063 10.094345,-9.607689 v -1.941608 c -0.0013,-0.857633 -0.69766,-1.551792 -1.555293,-1.550274 -0.855673,0.0013 -1.549022,0.694601 -1.550273,1.550274 v 1.424849 c 0,3.941914 -3.808447,7.114205 -8.539054,7.114205 -4.73061,0 -8.539054,-3.172291 -8.539055,-7.114205 v -1.424849 c -0.0013,-0.855673 -0.6946,-1.549023 -1.550274,-1.550274 z" />
</svg>
