<?xml version="1.0" encoding="UTF-8" standalone="no"?>
<svg
   width="32"
   height="32"
   version="1.1"
   viewBox="0 0 32 32"
   id="svg34"
   sodipodi:docname="big-noise-reduction-on.svg"
   inkscape:version="1.1.2 (0a00cf5339, 2022-02-04, custom)"
   xmlns:inkscape="http://www.inkscape.org/namespaces/inkscape"
   xmlns:sodipodi="http://sodipodi.sourceforge.net/DTD/sodipodi-0.dtd"
   xmlns="http://www.w3.org/2000/svg"
   xmlns:svg="http://www.w3.org/2000/svg"
   xmlns:rdf="http://www.w3.org/1999/02/22-rdf-syntax-ns#"
   xmlns:cc="http://creativecommons.org/ns#"
   xmlns:dc="http://purl.org/dc/elements/1.1/">
  <sodipodi:namedview
     pagecolor="#ffffff"
     bordercolor="#666666"
     borderopacity="1"
     objecttolerance="10"
     gridtolerance="10"
     guidetolerance="10"
     inkscape:pageopacity="0"
     inkscape:pageshadow="2"
     inkscape:window-width="2560"
     inkscape:window-height="1008"
     id="namedview22"
     showgrid="true"
     inkscape:zoom="11.678618"
     inkscape:cx="-8.2201507"
     inkscape:cy="11.944906"
     inkscape:window-x="1680"
     inkscape:window-y="0"
     inkscape:window-maximized="1"
     inkscape:current-layer="svg34"
     inkscape:document-rotation="0"
     inkscape:pagecheckerboard="0">
    <inkscape:grid
       type="xygrid"
       id="grid862" />
  </sodipodi:namedview>
  <metadata
     id="metadata38">
    <rdf:RDF>
      <cc:Work
         rdf:about="">
        <dc:format>image/svg+xml</dc:format>
        <dc:type
           rdf:resource="http://purl.org/dc/dcmitype/StillImage" />
      </cc:Work>
    </rdf:RDF>
  </metadata>
  <defs
     id="defs3">
      <style type="text/css" id="current-color-scheme">
      .ColorScheme-Text {
        color:#31363b;
      }
      .ColorScheme-Background {
        color:#eff0f1;
      }
      .ColorScheme-Highlight {
        color:#3daee9;
      }
      .ColorScheme-ViewText {
        color:#31363b;
      }
      .ColorScheme-ViewBackground {
        color:#fcfcfc;
      }
      .ColorScheme-ViewHover {
        color:#93cee9;
      }
      .ColorScheme-ViewFocus{
        color:#3daee9;
      }
      .ColorScheme-ButtonText {
        color:#31363b;
      }
      .ColorScheme-ButtonBackground {
        color:#eff0f1;
      }
      .ColorScheme-ButtonHover {
        color:#93cee9;
      }
      .ColorScheme-ButtonFocus{
        color:#3daee9;
      }
      </style>
  </defs>
  <path
     id="path1946"
       style="fill:currentColor;fill-opacity:1;fill-rule:nonzero;stroke:none;stroke-width:0.0369954"
     d="m 16.248047,4.7890625 c -2.630999,0.00833 -4.762077,2.1385362 -4.771485,4.7695313 v 7.0937502 h 9.542969 V 9.5585938 C 21.010131,6.9275991 18.879045,4.7973926 16.248047,4.7890625 Z M 23.875,6.4179688 c -0.240431,0 -0.433594,0.1931624 -0.433594,0.4335937 v 9.4160155 c 0,0.240431 0.193163,0.433594 0.433594,0.433594 h 0.02539 c 0.240431,0 0.433593,-0.193163 0.433593,-0.433594 V 6.8515625 c 0,-0.2404313 -0.193162,-0.4335937 -0.433593,-0.4335937 z m -8.742188,0.71875 c 0.37382,4.049e-4 0.676455,0.3039157 0.675782,0.6777343 -4.05e-4,0.3730561 -0.302725,0.6753767 -0.675782,0.6757813 -0.373055,-4.051e-4 -0.675376,-0.3027256 -0.675781,-0.6757813 -6.73e-4,-0.3738182 0.301962,-0.6773288 0.675781,-0.6777343 z m 2.230469,0 c 0.373819,4.055e-4 0.676455,0.3039161 0.675781,0.6777343 -4.05e-4,0.3730557 -0.302725,0.6753762 -0.675781,0.6757813 C 16.990225,8.4898293 16.687905,8.1875088 16.6875,7.8144531 16.686827,7.4406349 16.989462,7.1371243 17.363281,7.1367188 Z m 7.927735,1.0839843 c -0.240432,0 -0.433594,0.1931625 -0.433594,0.4335938 v 5.9589841 c 0,0.240432 0.193162,0.435547 0.433594,0.435547 h 0.02539 c 0.240432,0 0.435547,-0.195115 0.435547,-0.435547 V 8.6542969 c 0,-0.2404313 -0.195115,-0.4335938 -0.435547,-0.4335938 z M 8.28125,8.3945312 C 8.27081,8.3947472 8.26047,8.3974312 8.25,8.3984412 8.088445,8.3855662 7.926018,8.4654912 7.876953,8.6699256 L 6.578125,14.07227 5.787109,10.47266 c -0.04083,-0.182821 -0.173553,-0.264746 -0.316406,-0.271484 -0.142696,-0.03534 -0.29784,0.0095 -0.386719,0.18164 l -1.162109,2.25 -0.398437,-0.923828 C 3.445798,11.52888 3.2945,11.481698 3.152344,11.519535 H 2.117188 c -0.493027,0 -0.493027,0.765625 0,0.765625 H 2.943359 L 3.5625,13.718754 c 0.073,0.168731 0.213209,0.219527 0.347656,0.193359 0.12052,0.0059 0.240513,-0.05016 0.314453,-0.193359 l 1.046875,-2.03125 0.921875,4.193359 c 0.04417,0.197791 0.196072,0.277551 0.351563,0.271485 0.165357,0.01758 0.334505,-0.06137 0.384766,-0.271485 L 8.21875,10.521488 8.521484,12.00391 c 0.03567,0.169852 0.151061,0.254979 0.28125,0.271485 h 0.002 c 0.02704,0.0056 0.05502,0.0098 0.08594,0.0098 h 1.341797 c 0.493028,0 0.494623,-0.765625 0,-0.765625 H 9.203174 L 8.621143,8.6699606 C 8.580303,8.4755021 8.433737,8.3914163 8.281299,8.3945699 Z m 4.621094,0.8339844 c 0.373819,4.056e-4 0.676454,0.3039162 0.675781,0.6777344 -4.05e-4,0.373056 -0.302725,0.675376 -0.675781,0.675781 -0.373818,6.74e-4 -0.677329,-0.301962 -0.677735,-0.675781 -6.75e-4,-0.3745819 0.303153,-0.6784099 0.677735,-0.6777344 z m 2.230468,0 c 0.37382,4.05e-4 0.676455,0.3039158 0.675782,0.6777344 -4.05e-4,0.373056 -0.302725,0.675376 -0.675782,0.675781 -0.373055,-4.05e-4 -0.675376,-0.302725 -0.675781,-0.675781 -6.73e-4,-0.3738182 0.301962,-0.6773288 0.675781,-0.6777344 z m 2.230469,0 c 0.373819,4.056e-4 0.676455,0.3039162 0.675781,0.6777344 -4.05e-4,0.373056 -0.302725,0.675376 -0.675781,0.675781 C 16.990225,10.581626 16.687905,10.279306 16.6875,9.90625 16.686827,9.5324318 16.989462,9.2289212 17.363281,9.2285156 Z m 2.230469,0 c 0.373819,4.056e-4 0.676454,0.3039162 0.675781,0.6777344 -4.05e-4,0.373056 -0.302725,0.675376 -0.675781,0.675781 -0.373056,-4.05e-4 -0.675376,-0.302725 -0.675781,-0.675781 -6.73e-4,-0.3738182 0.301962,-0.6773288 0.675781,-0.6777344 z m 2.863281,0.4160156 c -0.240431,0 -0.433594,0.1931625 -0.433593,0.4335938 v 2.962891 c 0,0.240431 0.193162,0.433593 0.433593,0.433593 h 0.02539 c 0.240431,0 0.435547,-0.193162 0.435547,-0.433593 v -2.962891 c 0,-0.2404313 -0.195116,-0.4335938 -0.435547,-0.4335938 z m 5.666016,0.037109 c -0.240431,0 -0.433594,0.1931625 -0.433594,0.4335938 v 2.964844 c 0,0.240431 0.193163,0.433594 0.433594,0.433594 h 0.02539 c 0.240429,0 0.435546,-0.193163 0.435546,-0.433594 v -2.964844 c 0,-0.2404313 -0.195117,-0.4335938 -0.435546,-0.4335938 z m -1.414063,0.5898438 c -0.240431,0 -0.435546,0.193163 -0.435546,0.433594 v 1.869141 c -10e-7,0.240431 0.195115,0.435547 0.435546,0.435547 h 0.02539 c 0.240431,0 0.433594,-0.195116 0.433594,-0.435547 v -1.869141 c 0,-0.240431 -0.193163,-0.433594 -0.433594,-0.433594 z m 2.808594,0.69336 c -0.229941,0.01158 -0.410156,0.200676 -0.410156,0.433594 v 0.330078 c 0,0.240431 0.193162,0.435547 0.433594,0.435546 h 0.02539 C 29.806838,12.164065 30,11.968947 30,11.728516 v -0.330078 c 0,-0.240433 -0.193162,-0.433594 -0.433594,-0.433594 h -0.02539 c -0.0075,0 -0.01602,-3.74e-4 -0.02344,0 z M 12.902344,11.40625 c 0.373818,4.06e-4 0.676454,0.303916 0.675781,0.677734 -4.05e-4,0.373056 -0.302725,0.675377 -0.675781,0.675782 -0.373819,6.74e-4 -0.67733,-0.301963 -0.677735,-0.675782 -6.75e-4,-0.374582 0.303153,-0.67841 0.677735,-0.677734 z m 2.230468,0 c 0.37382,4.05e-4 0.676455,0.303916 0.675782,0.677734 -4.05e-4,0.373056 -0.302725,0.675377 -0.675782,0.675782 -0.373055,-4.05e-4 -0.675376,-0.302726 -0.675781,-0.675782 -6.73e-4,-0.373818 0.301964,-0.677328 0.675781,-0.677734 z m 2.230469,0 c 0.373818,4.06e-4 0.676455,0.303916 0.675781,0.677734 -4.05e-4,0.373056 -0.302725,0.675377 -0.675781,0.675782 -0.373056,-4.05e-4 -0.675376,-0.302726 -0.675781,-0.675782 -6.73e-4,-0.373818 0.301963,-0.677328 0.675781,-0.677734 z m 2.230469,0 c 0.373818,4.06e-4 0.676454,0.303916 0.675781,0.677734 -4.05e-4,0.373056 -0.302725,0.675377 -0.675781,0.675782 -0.373056,-4.05e-4 -0.675376,-0.302726 -0.675781,-0.675782 -6.73e-4,-0.373818 0.301963,-0.677328 0.675781,-0.677734 z m -6.691406,2.259766 c 0.373818,4.06e-4 0.676454,0.303916 0.675781,0.677734 -4.05e-4,0.373056 -0.302725,0.675376 -0.675781,0.675781 -0.373818,6.74e-4 -0.677329,-0.301962 -0.677735,-0.675781 -6.75e-4,-0.374582 0.303153,-0.67841 0.677735,-0.677734 z m 2.230468,0 c 0.37382,4.05e-4 0.676455,0.303916 0.675782,0.677734 -4.05e-4,0.373056 -0.302725,0.675376 -0.675782,0.675781 -0.373055,-4.05e-4 -0.675376,-0.302725 -0.675781,-0.675781 -6.73e-4,-0.373818 0.301964,-0.677328 0.675781,-0.677734 z m 2.230469,0 c 0.373818,4.06e-4 0.676455,0.303916 0.675781,0.677734 -4.05e-4,0.373056 -0.302725,0.675376 -0.675781,0.675781 -0.373056,-4.05e-4 -0.675376,-0.302725 -0.675781,-0.675781 -6.73e-4,-0.373818 0.301963,-0.677328 0.675781,-0.677734 z m 2.230469,0 c 0.373818,4.06e-4 0.676454,0.303916 0.675781,0.677734 -4.05e-4,0.373056 -0.302725,0.675376 -0.675781,0.675781 -0.373056,-4.05e-4 -0.675376,-0.302725 -0.675781,-0.675781 -6.73e-4,-0.373818 0.301963,-0.677328 0.675781,-0.677734 z m -9.917969,3.630859 v 1.644531 c 0.01121,3.105167 2.374284,5.660625 5.617188,6.015625 V 27.75 c -2.487992,0.128016 -4.388672,0.802345 -4.388672,1.617188 H 21.394531 C 21.394531,28.551838 19.490273,27.877414 17,27.75 v -2.816406 c 3.17289,-0.433421 5.608155,-2.949023 5.619141,-5.992188 l 0.002,-1.644531 z m 1.035157,0.0039 h 10.875 v 1.320313 c -0.01027,3.053928 -2.538411,5.325775 -5.53711,5.335937 -2.998699,-0.01016 -5.32762,-2.282009 -5.33789,-5.335937 z m 0.765624,0.173828 v 1.138672 a 4.7866704,4.7866704 0 0 0 4.771485,4.769531 4.7866704,4.7866704 0 0 0 4.771484,-4.769531 v -1.138672 z" class="ColorScheme-Text"/>
</svg>
